<?xml version="1.0" standalone="no"?>
<!DOCTYPE svg PUBLIC "-//W3C//DTD SVG 20010904//EN"
 "http://www.w3.org/TR/2001/REC-SVG-20010904/DTD/svg10.dtd">
<svg version="1.0" xmlns="http://www.w3.org/2000/svg"
 width="376.000000pt" height="376.000000pt" viewBox="0 0 376.000000 376.000000"
 preserveAspectRatio="xMidYMid meet">
<metadata>
Created by potrace 1.14, written by Peter Selinger 2001-2017
</metadata>
<g transform="translate(0.000000,376.000000) scale(0.100000,-0.100000)"
fill="#000000" stroke="none">
<path d="M1279 3753 c-1 -4 -1 -12 0 -16 1 -5 -3 -6 -9 -2 -5 3 -10 1 -10 -5
0 -6 -4 -9 -9 -5 -5 3 -13 0 -16 -6 -4 -5 -13 -8 -21 -5 -8 3 -14 1 -14 -5 0
-6 -4 -8 -9 -4 -5 3 -17 -3 -27 -12 -10 -10 -19 -16 -20 -13 -1 3 -13 -4 -26
-15 -13 -11 -27 -20 -33 -21 -23 -1 -63 -24 -69 -39 -3 -10 -11 -13 -18 -9 -7
4 -10 4 -6 -1 4 -4 2 -13 -5 -21 -32 -35 -37 -46 -42 -92 -2 -13 -8 -29 -14
-36 -6 -7 -8 -15 -6 -18 3 -3 -6 -13 -20 -22 -14 -9 -23 -21 -20 -26 3 -4 1
-10 -5 -12 -5 -1 -12 -30 -14 -62 -3 -33 -10 -64 -16 -70 -6 -6 -10 -6 -10 0
0 5 -9 -6 -20 -24 -11 -18 -18 -37 -15 -43 4 -5 2 -9 -3 -9 -14 0 -12 -48 2
-59 14 -12 9 -81 -5 -81 -6 0 -6 -7 -1 -17 10 -22 10 -33 -2 -52 -6 -9 -5 -12
2 -7 7 4 10 -3 8 -21 -2 -16 1 -37 7 -48 15 -28 26 -115 14 -115 -5 0 -7 -9
-4 -20 3 -10 0 -21 -7 -24 -7 -3 -7 -5 2 -5 8 -1 10 -6 5 -13 -9 -15 -13 -388
-5 -403 9 -16 9 -45 0 -51 -4 -3 -5 -13 0 -22 7 -15 8 -33 3 -81 -1 -11 -5
-10 -17 5 -8 10 -13 12 -9 4 5 -12 4 -12 -7 1 -7 9 -30 16 -51 17 -32 1 -39
-2 -49 -26 -6 -15 -12 -43 -15 -62 -2 -19 -8 -39 -13 -45 -6 -7 -7 -14 -4 -17
6 -7 14 -58 16 -108 0 -19 5 -40 10 -47 6 -7 5 -14 -2 -18 -7 -4 -7 -11 -2
-18 10 -13 32 -118 32 -154 0 -21 -4 -23 -59 -23 -66 0 -111 -20 -128 -56 -13
-28 -15 -206 -3 -238 4 -13 4 -29 -1 -39 -6 -9 -6 -17 -1 -17 8 0 10 -56 1
-64 -7 -7 2 -116 9 -112 4 2 6 -45 6 -105 -1 -60 2 -111 6 -114 5 -3 5 -18 0
-34 -4 -16 -5 -32 -2 -36 10 -10 9 -55 -1 -55 -4 0 -5 -5 -2 -11 10 -15 11
-120 2 -126 -4 -2 -4 -9 -1 -15 4 -7 2 -8 -5 -4 -11 7 -23 -4 -97 -87 -29 -32
-61 -101 -56 -120 1 -4 -3 -7 -8 -7 -5 0 -9 -3 -8 -7 1 -5 -8 -30 -20 -57 -12
-26 -19 -52 -16 -57 3 -5 0 -9 -5 -9 -6 0 -14 -18 -17 -40 -4 -22 -11 -40 -16
-40 -5 0 -4 -10 3 -21 6 -12 7 -19 2 -16 -6 4 -10 -30 -11 -78 l-2 -85 1601 0
1601 0 -4 120 c-1 67 -7 124 -13 128 -5 4 -11 16 -12 27 -4 45 -9 60 -20 68
-7 4 -10 14 -7 22 4 8 1 15 -5 15 -6 0 -11 6 -11 14 0 20 -42 96 -52 96 -5 0
-7 4 -4 9 3 5 -6 23 -22 40 -15 17 -38 44 -52 61 -13 16 -29 30 -35 30 -16 0
-37 38 -23 42 8 3 8 10 -1 25 -7 15 -8 24 -1 28 6 4 7 11 4 17 -4 5 -5 33 -4
62 7 163 12 295 15 404 1 68 7 128 12 133 4 4 6 38 3 74 -3 37 -1 70 4 75 7 7
7 10 0 10 -5 0 -8 18 -6 39 3 25 -2 48 -13 64 -14 22 -26 28 -77 42 -5 2 -31
3 -59 4 -39 1 -49 4 -43 14 5 6 9 33 9 59 0 25 3 44 7 42 11 -7 17 11 8 26 -5
8 -5 19 0 25 4 5 10 30 13 55 2 25 8 53 12 63 11 26 0 170 -14 175 -6 2 -9 8
-6 13 10 16 -29 45 -62 47 -18 1 -33 -2 -33 -7 0 -5 -9 -9 -20 -8 -18 1 -30
17 -12 17 4 0 8 39 10 87 2 48 6 91 8 95 3 4 2 8 -3 8 -4 0 -8 52 -7 115 1 64
-3 118 -8 121 -4 3 -5 11 -1 17 10 17 11 67 1 73 -5 3 -5 11 0 17 11 16 16
137 5 137 -4 0 -9 19 -11 42 -1 23 -6 45 -10 48 -4 3 -18 26 -32 53 -13 26
-30 47 -37 47 -6 0 -15 9 -18 20 -3 11 -11 20 -16 20 -5 0 -9 24 -9 53 0 30
-3 57 -7 61 -8 7 -9 12 -11 54 -1 13 -6 20 -12 17 -5 -3 -10 1 -10 9 0 9 -9
25 -20 36 -11 11 -20 24 -20 29 0 5 -8 12 -18 15 -9 3 -32 19 -50 36 -19 17
-38 28 -43 25 -5 -4 -9 -2 -9 3 0 5 -18 17 -40 28 -22 10 -40 23 -40 27 0 5
-4 5 -10 2 -5 -3 -10 -1 -10 6 0 7 -3 10 -6 7 -3 -4 -29 7 -57 23 -29 16 -63
34 -77 41 -14 7 -28 16 -31 21 -3 5 -10 9 -15 9 -5 0 -33 11 -62 25 -29 13
-58 21 -64 17 -7 -4 -8 -3 -4 4 6 11 -6 16 -26 13 -5 0 -8 3 -8 9 0 5 -6 7
-14 4 -7 -3 -21 2 -30 11 -9 9 -16 12 -16 6 0 -11 -21 -11 -30 0 -3 4 -24 9
-48 13 -23 3 -51 10 -62 16 -11 6 -20 7 -20 3 0 -4 -5 -2 -12 5 -7 7 -20 12
-30 12 -10 0 -18 5 -18 10 0 7 -6 8 -17 2 -12 -7 -21 -5 -31 5 -8 8 -18 11
-21 6 -8 -11 -54 -10 -63 2 -5 6 -8 4 -8 -5 0 -13 -1 -13 -10 0 -7 11 -10 11
-10 2 0 -10 -5 -10 -20 -2 -15 8 -20 8 -20 -2 0 -10 -2 -10 -9 1 -5 7 -13 11
-19 7 -6 -3 -12 -1 -14 5 -5 14 -138 18 -138 4 0 -5 -5 -3 -10 5 -8 13 -10 13
-10 -1 0 -9 -7 -16 -15 -16 -8 0 -15 5 -15 10 0 5 -7 4 -15 -3 -11 -9 -17 -9
-29 2 -15 16 -145 25 -147 11z"/>
</g>
</svg>
